# xmcd
#
# Track frame offsets:
#	150
#	6700
#	27036
#	49179
#	75583
#	151723
#	175956
#
# Disc length: 2378 seconds
#
# Revision: 2
# Processed by: cddbd v1.5.1PL0 Copyright (c) Steve Scherf et al.
# Submitted via: EasyCDDAExtractor 5.1.0
#
DISCID=49094807
DTITLE=Glenn Hughes - Milano Italy 18-03-05 Disc 1
DYEAR=2005
DGENRE=Hard Rock
TTITLE0=Intro
TTITLE1=Soul Mover
TTITLE2=Orion
TTITLE3=Land Of The Livin'
TTITLE4=Mistreated
TTITLE5=Can't Stop The Flood
TTITLE6=Nel Blu Dipinto Di Blu
EXTD=
EXTT0=
EXTT1=
EXTT2=
EXTT3=
EXTT4=
EXTT5=
EXTT6=
PLAYORDER=
